<svg width="30" height="30" viewBox="0 0 30 30" fill="none" xmlns="http://www.w3.org/2000/svg">
<g filter="url(#filter0_d_10_17)">
<path fill-rule="evenodd" clip-rule="evenodd" d="M16.3125 1.42602C16.3125 0.682651 15.7249 0.0800171 15 0.0800171C14.2751 0.0800171 13.6875 0.682651 13.6875 1.42602V6.17445C12.6031 5.17916 11.2483 4.48749 9.74999 4.2297V4.11803C9.74999 3.37466 9.16237 2.77203 8.43749 2.77203C7.71263 2.77203 7.125 3.37466 7.125 4.11803V6.81004V10.8481V13.5401V14.8861C7.125 15.8395 7.28611 16.7543 7.58192 17.6035L9.78443 15.506C9.76169 15.3027 9.74999 15.0958 9.74999 14.8861V13.7097C10.2227 13.8344 10.5 13.9887 11.081 14.2714L12.5 12.1941C11.5378 11.4772 10.9721 11.17 9.74999 10.9598V6.97967C11.8955 7.54596 13.5238 8.62551 13.6875 10.9598L19.5 5.46404L22.4013 3.49135C22.4693 3.42656 22.5398 3.36619 22.6125 3.31021C22.3729 2.9834 21.9918 2.77203 21.5625 2.77203C20.8376 2.77203 20 3.37466 20 4.11803C18.5017 4.37582 17.3969 5.17916 16.3125 6.17445V1.42602ZM13.6875 22.8504C12.6829 22.6776 11.7427 22.3097 10.9053 21.786L12.9462 19.8425C13.1848 19.9467 13.4323 20.0332 13.6875 20.1005V19.1366L16.3125 17.1294C16.3125 17.3222 16.3125 16.6808 16.3125 18.9241V20.1005C18.5768 19.5027 20.25 17.3948 20.25 14.8861V13.7097C19.6176 13.8766 20 13.9887 19.5 13.9887L22.875 10.3875V10.8481V13.5401V14.8861C22.875 18.8878 20.037 22.2097 16.3125 22.8504V25.6541C16.3125 26.3975 15.7249 27.0001 15 27.0001C14.2751 27.0001 13.6875 26.3975 13.6875 25.6541V22.8504ZM25.0806 6.45038C25.6118 5.94455 25.6425 5.09289 25.1493 4.54815C24.656 4.00341 23.8256 3.97186 23.2944 4.4777L4.91941 21.9758C4.38823 22.4816 4.35748 23.3332 4.85071 23.8781C5.34395 24.4228 6.17441 24.4543 6.7056 23.9485L25.0806 6.45038Z" fill="black"/>
<path d="M13.5184 6.35863L13.9375 6.74325V6.17445V1.42602C13.9375 0.81474 14.4191 0.330017 15 0.330017C15.5809 0.330017 16.0625 0.81474 16.0625 1.42602V6.17445V6.74325L16.4815 6.35863C17.5543 5.37401 18.6154 4.60993 20.0424 4.36441L20.25 4.32869V4.11803C20.25 3.84385 20.4057 3.57248 20.667 3.36035C20.9281 3.14838 21.2643 3.02203 21.5625 3.02203C21.8258 3.02203 22.0677 3.12081 22.2544 3.28626C22.251 3.28947 22.2475 3.29269 22.2441 3.29591L19.3594 5.2573L19.3428 5.26859L19.3282 5.28238L13.8768 10.4367C13.7099 9.45792 13.2691 8.70265 12.6301 8.12174C11.8924 7.45118 10.9055 7.0261 9.81379 6.73795L9.49999 6.65512V6.97967V10.9598V11.1704L9.70761 11.2062C10.3042 11.3088 10.7284 11.433 11.1171 11.6136C11.4534 11.77 11.771 11.9723 12.1574 12.2524L10.9966 13.9517C10.9847 13.9458 10.9729 13.94 10.9612 13.9343C10.5293 13.7218 10.2444 13.5816 9.81379 13.4679L9.49999 13.3851V13.7097V14.8861C9.49999 15.0625 9.50792 15.237 9.52342 15.4094L7.69815 17.1476C7.48802 16.4319 7.375 15.6727 7.375 14.8861V13.5401V10.8481V6.81004V4.11803C7.375 3.50675 7.8566 3.02203 8.43749 3.02203C9.0184 3.02203 9.49999 3.50675 9.49999 4.11803V4.2297V4.44036L9.7076 4.47608C11.1567 4.72539 12.468 5.39445 13.5184 6.35863ZM13.9375 22.8504V22.6397L13.7299 22.604C12.8679 22.4557 12.0547 22.159 11.3162 21.7399L13.0004 20.1361C13.2026 20.217 13.4106 20.286 13.6237 20.3422L13.9375 20.425V20.1005V19.2602L16.0625 17.6353V17.6385V17.6439V17.6494V17.6549V17.6604V17.666V17.6717V17.6774V17.6831V17.6888V17.6947V17.7005V17.7064V17.7124V17.7183V17.7244V17.7305V17.7366V17.7427V17.749V17.7552V17.7615V17.7679V17.7743V17.7807V17.7872V17.7937V17.8003V17.8069V17.8136V17.8203V17.8271V17.8339V17.8408V17.8477V17.8546V17.8617V17.8687V17.8758V17.883V17.8902V17.8974V17.9047V17.9121V17.9195V17.9269V17.9344V17.942V17.9496V17.9572V17.9649V17.9726V17.9804V17.9883V17.9962V18.0041V18.0121V18.0202V18.0283V18.0365V18.0447V18.0529V18.0613V18.0696V18.078V18.0865V18.095V18.1036V18.1123V18.121V18.1297V18.1385V18.1473V18.1562V18.1652V18.1742V18.1833V18.1924V18.2016V18.2108V18.2201V18.2294V18.2388V18.2483V18.2578V18.2674V18.277V18.2867V18.2964V18.3062V18.316V18.3259V18.3359V18.3459V18.356V18.3662V18.3763V18.3866V18.3969V18.4073V18.4177V18.4282V18.4388V18.4494V18.46V18.4708V18.4815V18.4924V18.5033V18.5143V18.5253V18.5364V18.5475V18.5587V18.57V18.5813V18.5927V18.6042V18.6157V18.6273V18.6389V18.6506V18.6624V18.6742V18.6861V18.698V18.71V18.7221V18.7343V18.7465V18.7587V18.7711V18.7835V18.7959V18.8084V18.821V18.8337V18.8464V18.8592V18.872V18.885V18.8979V18.911V18.9241V20.1005V20.4251L16.3763 20.3422C18.7514 19.7152 20.5 17.5072 20.5 14.8861V13.7097V13.3851L20.3782 13.4173L22.625 11.0199V13.5401V14.8861C22.625 18.7685 19.8722 21.9844 16.2701 22.604L16.0625 22.6397V22.8504V25.6541C16.0625 26.2654 15.5809 26.7501 15 26.7501C14.4191 26.7501 13.9375 26.2654 13.9375 25.6541V22.8504ZM23.4668 4.65874L23.2944 4.4777L23.4669 4.65874C23.8959 4.25013 24.5647 4.27504 24.9639 4.71595C25.3664 5.16048 25.3409 5.85734 24.9082 6.26934L6.5332 23.7674C6.1041 24.176 5.43526 24.1511 5.03605 23.7103C4.63352 23.2656 4.65917 22.5688 5.09181 22.1568L23.4668 4.65874Z" stroke="white" stroke-width="0.5"/>
</g>
<defs>
<filter id="filter0_d_10_17" x="0.5" y="0.0800171" width="29" height="34.9201" filterUnits="userSpaceOnUse" color-interpolation-filters="sRGB">
<feFlood flood-opacity="0" result="BackgroundImageFix"/>
<feColorMatrix in="SourceAlpha" type="matrix" values="0 0 0 0 0 0 0 0 0 0 0 0 0 0 0 0 0 0 127 0" result="hardAlpha"/>
<feOffset dy="4"/>
<feGaussianBlur stdDeviation="2"/>
<feComposite in2="hardAlpha" operator="out"/>
<feColorMatrix type="matrix" values="0 0 0 0 0 0 0 0 0 0 0 0 0 0 0 0 0 0 0.25 0"/>
<feBlend mode="normal" in2="BackgroundImageFix" result="effect1_dropShadow_10_17"/>
<feBlend mode="normal" in="SourceGraphic" in2="effect1_dropShadow_10_17" result="shape"/>
</filter>
</defs>
</svg>
