<svg width="24" height="30" viewBox="0 0 24 30" fill="none" xmlns="http://www.w3.org/2000/svg">
<path fill-rule="evenodd" clip-rule="evenodd" d="M7.75 0C6.96759 0 6.33333 0.67158 6.33333 1.5C6.33333 2.32842 6.96759 3 7.75 3V6.87868L5.15972 9.62132C4.09701 10.7465 3.5 12.2727 3.5 13.8639V20.0131L6.33333 17.2275V13.8639C6.33333 13.0683 6.63184 12.3053 7.16319 11.7426L9.75345 9C10.2848 8.4374 10.5833 7.67433 10.5833 6.87868V3H13.4167V6.87868C13.4167 7.67433 13.7152 8.4374 14.2466 9L14.4656 9.23193L16.5433 7.18919L16.25 6.87868V3C17.0324 3 17.6667 2.32842 17.6667 1.5C17.6667 0.67158 17.0324 0 16.25 0H7.75ZM9.16667 30C7.18426 30 5.4396 28.9221 4.42693 27.2896L6.56428 25.1883C6.99896 26.254 8.00054 27 9.16667 27H14.8333C16.3982 27 17.6667 25.6569 17.6667 24V14.2725L20.161 11.82C20.3833 12.4692 20.5 13.1603 20.5 13.8639V24C20.5 27.3137 17.9629 30 14.8333 30H9.16667ZM22.8806 7.09918C23.454 6.53548 23.4872 5.58639 22.9548 4.97933C22.4224 4.37226 21.5261 4.3371 20.9526 4.90082L1.11936 24.4008C0.54601 24.9645 0.512817 25.9135 1.0452 26.5208C1.5776 27.1278 2.47397 27.1629 3.0473 26.5992L22.8806 7.09918Z" fill="black"/>
<path d="M8.08 3V2.67H7.75C7.16736 2.67 6.66333 2.16419 6.66333 1.5C6.66333 0.835807 7.16736 0.33 7.75 0.33H16.25C16.8327 0.33 17.3367 0.835805 17.3367 1.5C17.3367 2.1642 16.8327 2.67 16.25 2.67H15.92V3V6.87868V7.00989L16.0101 7.10527L16.0813 7.18063L14.4744 8.76051C14.0101 8.26226 13.7467 7.58658 13.7467 6.87868V3V2.67H13.4167H10.5833H10.2533V3V6.87868C10.2533 7.59271 9.98529 8.27395 9.51355 8.7734L9.51354 8.77341L6.92327 11.5161C6.33229 12.1418 6.00333 12.9867 6.00333 13.8639V17.0892L3.83 19.2259V13.8639C3.83 12.3543 4.39656 10.91 5.39964 9.8479L7.98991 7.10527L8.08 7.00989V6.87868V3ZM22.6492 6.86384L22.6492 6.86387L2.81595 26.3639C2.37885 26.7936 1.70162 26.7687 1.29333 26.3032C0.875459 25.8266 0.903001 25.0763 1.35072 24.6361L1.11936 24.4008L1.35072 24.6361L21.184 5.13615C21.184 5.13614 21.184 5.13614 21.184 5.13613C21.6212 4.70635 22.2984 4.73137 22.7067 5.19691C23.1245 5.67336 23.097 6.42367 22.6492 6.86384ZM9.16667 29.67C7.39848 29.67 5.82469 28.7554 4.85087 27.3356L6.4708 25.743C7.02433 26.6894 8.01955 27.33 9.16667 27.33H14.8333C16.598 27.33 17.9967 25.8211 17.9967 24V14.4108L19.9994 12.4417C20.1117 12.9022 20.17 13.3798 20.17 13.8639V24C20.17 27.1494 17.7631 29.67 14.8333 29.67H9.16667Z" stroke="white" stroke-opacity="0.96" stroke-width="0.66"/>
</svg>
